<svg width="12" height="12" viewBox="0 0 12 12" fill="none" xmlns="http://www.w3.org/2000/svg">
<path fill-rule="evenodd" clip-rule="evenodd" d="M3.456 1.5C3.13514 1.49994 2.82272 1.60276 2.56462 1.79337C2.30651 1.98398 2.11633 2.25232 2.022 2.559L0.8165 6.478C0.772482 6.62087 0.750067 6.76951 0.75 6.919V9C0.75 9.39782 0.908035 9.77936 1.18934 10.0607C1.47064 10.342 1.85218 10.5 2.25 10.5H9.75C10.1478 10.5 10.5294 10.342 10.8107 10.0607C11.092 9.77936 11.25 9.39782 11.25 9V6.919C11.25 6.7695 11.2275 6.621 11.1835 6.478L9.9775 2.559C9.88319 2.25241 9.69309 1.98412 9.43508 1.79352C9.17708 1.60292 8.86477 1.50004 8.544 1.5H3.456ZM10.3675 6.375L9.261 2.7795C9.21383 2.62616 9.11874 2.49199 8.98969 2.39668C8.86064 2.30138 8.70443 2.24997 8.544 2.25H3.456C3.29557 2.24997 3.13936 2.30138 3.01031 2.39668C2.88126 2.49199 2.78617 2.62616 2.739 2.7795L1.6325 6.375H3.055C3.33361 6.37492 3.60674 6.45243 3.84377 6.59885C4.0808 6.74528 4.27237 6.95482 4.397 7.204L4.525 7.4605C4.58732 7.58509 4.6831 7.68986 4.80162 7.76307C4.92013 7.83628 5.05669 7.87504 5.196 7.875H6.805C6.94436 7.875 7.08096 7.83616 7.19948 7.76286C7.318 7.68956 7.41375 7.58468 7.476 7.46L7.604 7.204C7.72863 6.95482 7.9202 6.74528 8.15723 6.59885C8.39426 6.45243 8.66739 6.37492 8.946 6.375H10.3675Z" fill="#525252"/>
</svg>
